<mxfile host="app.diagrams.net" agent="Mozilla/5.0 (Windows NT 10.0; Win64; x64) AppleWebKit/537.36 (KHTML, like Gecko) Chrome/138.0.0.0 Safari/537.36" version="27.2.0">
  <diagram name="Page-1" id="kPvC3Daip0DYiwW2VVMP">
    <mxGraphModel dx="1042" dy="1704" grid="1" gridSize="10" guides="1" tooltips="1" connect="1" arrows="1" fold="1" page="1" pageScale="1" pageWidth="827" pageHeight="1169" math="0" shadow="0">
      <root>
        <mxCell id="0" />
        <mxCell id="1" parent="0" />
        <mxCell id="lPdVNibD4KameyfcasV8-29" style="edgeStyle=orthogonalEdgeStyle;rounded=0;orthogonalLoop=1;jettySize=auto;html=1;" parent="1" source="lPdVNibD4KameyfcasV8-13" target="lPdVNibD4KameyfcasV8-14" edge="1">
          <mxGeometry relative="1" as="geometry" />
        </mxCell>
        <mxCell id="lPdVNibD4KameyfcasV8-13" value="Client" style="rounded=1;whiteSpace=wrap;html=1;" parent="1" vertex="1">
          <mxGeometry x="50" y="135" width="120" height="60" as="geometry" />
        </mxCell>
        <mxCell id="lPdVNibD4KameyfcasV8-18" style="edgeStyle=orthogonalEdgeStyle;rounded=0;orthogonalLoop=1;jettySize=auto;html=1;entryX=0;entryY=0.5;entryDx=0;entryDy=0;" parent="1" source="lPdVNibD4KameyfcasV8-14" target="lPdVNibD4KameyfcasV8-15" edge="1">
          <mxGeometry relative="1" as="geometry">
            <mxPoint x="280" y="390" as="targetPoint" />
          </mxGeometry>
        </mxCell>
        <mxCell id="lPdVNibD4KameyfcasV8-16" style="edgeStyle=orthogonalEdgeStyle;rounded=0;orthogonalLoop=1;jettySize=auto;html=1;entryX=1;entryY=0.5;entryDx=0;entryDy=0;" parent="1" source="lPdVNibD4KameyfcasV8-15" target="lPdVNibD4KameyfcasV8-14" edge="1">
          <mxGeometry relative="1" as="geometry">
            <mxPoint x="280" y="290" as="targetPoint" />
          </mxGeometry>
        </mxCell>
        <mxCell id="lPdVNibD4KameyfcasV8-15" value="Consul" style="rounded=1;whiteSpace=wrap;html=1;" parent="1" vertex="1">
          <mxGeometry x="470" y="135" width="120" height="60" as="geometry" />
        </mxCell>
        <mxCell id="lPdVNibD4KameyfcasV8-17" value="Service Discovery" style="text;html=1;align=center;verticalAlign=middle;whiteSpace=wrap;rounded=0;" parent="1" vertex="1">
          <mxGeometry x="380" y="130" width="60" height="30" as="geometry" />
        </mxCell>
        <mxCell id="lPdVNibD4KameyfcasV8-20" value="Auth Service" style="rounded=1;whiteSpace=wrap;html=1;" parent="1" vertex="1">
          <mxGeometry x="462" y="-30" width="120" height="60" as="geometry" />
        </mxCell>
        <mxCell id="lPdVNibD4KameyfcasV8-34" value="" style="edgeStyle=orthogonalEdgeStyle;rounded=0;orthogonalLoop=1;jettySize=auto;html=1;" parent="1" source="lPdVNibD4KameyfcasV8-21" target="lPdVNibD4KameyfcasV8-33" edge="1">
          <mxGeometry relative="1" as="geometry" />
        </mxCell>
        <mxCell id="4LYtJYmoKhCsaAz2NnDb-9" style="edgeStyle=orthogonalEdgeStyle;rounded=0;orthogonalLoop=1;jettySize=auto;html=1;exitX=1;exitY=0.5;exitDx=0;exitDy=0;entryX=0.5;entryY=1;entryDx=0;entryDy=0;" edge="1" parent="1" source="lPdVNibD4KameyfcasV8-21" target="lPdVNibD4KameyfcasV8-36">
          <mxGeometry relative="1" as="geometry" />
        </mxCell>
        <mxCell id="lPdVNibD4KameyfcasV8-21" value="Post Service" style="rounded=1;whiteSpace=wrap;html=1;arcSize=0;" parent="1" vertex="1">
          <mxGeometry x="462" y="340" width="120" height="60" as="geometry" />
        </mxCell>
        <mxCell id="lPdVNibD4KameyfcasV8-22" style="edgeStyle=orthogonalEdgeStyle;rounded=0;orthogonalLoop=1;jettySize=auto;html=1;entryX=0.01;entryY=0.62;entryDx=0;entryDy=0;entryPerimeter=0;" parent="1" source="lPdVNibD4KameyfcasV8-21" target="lPdVNibD4KameyfcasV8-5" edge="1">
          <mxGeometry relative="1" as="geometry" />
        </mxCell>
        <mxCell id="lPdVNibD4KameyfcasV8-26" value="" style="group" parent="1" vertex="1" connectable="0">
          <mxGeometry x="760" y="240" width="160" height="190" as="geometry" />
        </mxCell>
        <mxCell id="lPdVNibD4KameyfcasV8-11" value="" style="group" parent="lPdVNibD4KameyfcasV8-26" vertex="1" connectable="0">
          <mxGeometry y="30" width="160" height="160" as="geometry" />
        </mxCell>
        <mxCell id="lPdVNibD4KameyfcasV8-5" value="" style="whiteSpace=wrap;html=1;aspect=fixed;" parent="lPdVNibD4KameyfcasV8-11" vertex="1">
          <mxGeometry width="160" height="160" as="geometry" />
        </mxCell>
        <mxCell id="lPdVNibD4KameyfcasV8-6" value="" style="shape=cylinder3;whiteSpace=wrap;html=1;boundedLbl=1;backgroundOutline=1;size=15;" parent="lPdVNibD4KameyfcasV8-11" vertex="1">
          <mxGeometry x="10" y="10" width="50" height="70" as="geometry" />
        </mxCell>
        <mxCell id="lPdVNibD4KameyfcasV8-7" value="" style="shape=cylinder3;whiteSpace=wrap;html=1;boundedLbl=1;backgroundOutline=1;size=15;" parent="lPdVNibD4KameyfcasV8-11" vertex="1">
          <mxGeometry x="90" y="80" width="50" height="70" as="geometry" />
        </mxCell>
        <mxCell id="lPdVNibD4KameyfcasV8-8" value="Post Database" style="text;html=1;align=center;verticalAlign=middle;whiteSpace=wrap;rounded=0;" parent="lPdVNibD4KameyfcasV8-11" vertex="1">
          <mxGeometry x="90" y="10" width="60" height="30" as="geometry" />
        </mxCell>
        <mxCell id="lPdVNibD4KameyfcasV8-25" value="MongoDBs" style="text;html=1;align=center;verticalAlign=middle;whiteSpace=wrap;rounded=0;" parent="lPdVNibD4KameyfcasV8-26" vertex="1">
          <mxGeometry x="50" width="60" height="30" as="geometry" />
        </mxCell>
        <mxCell id="lPdVNibD4KameyfcasV8-28" style="edgeStyle=orthogonalEdgeStyle;rounded=0;orthogonalLoop=1;jettySize=auto;html=1;entryX=0.447;entryY=0.027;entryDx=0;entryDy=0;entryPerimeter=0;" parent="1" source="lPdVNibD4KameyfcasV8-20" target="lPdVNibD4KameyfcasV8-27" edge="1">
          <mxGeometry relative="1" as="geometry" />
        </mxCell>
        <mxCell id="lPdVNibD4KameyfcasV8-31" style="edgeStyle=orthogonalEdgeStyle;rounded=0;orthogonalLoop=1;jettySize=auto;html=1;entryX=0.44;entryY=0.98;entryDx=0;entryDy=0;entryPerimeter=0;" parent="1" source="lPdVNibD4KameyfcasV8-21" target="lPdVNibD4KameyfcasV8-15" edge="1">
          <mxGeometry relative="1" as="geometry" />
        </mxCell>
        <mxCell id="lPdVNibD4KameyfcasV8-33" value="Grafana" style="whiteSpace=wrap;html=1;rounded=1;" parent="1" vertex="1">
          <mxGeometry x="220" y="340" width="120" height="60" as="geometry" />
        </mxCell>
        <mxCell id="lPdVNibD4KameyfcasV8-35" value="Prometheus&amp;nbsp;" style="text;html=1;align=center;verticalAlign=middle;whiteSpace=wrap;rounded=0;" parent="1" vertex="1">
          <mxGeometry x="230" y="400" width="60" height="30" as="geometry" />
        </mxCell>
        <mxCell id="lPdVNibD4KameyfcasV8-36" value="Redis Cache" style="rounded=1;whiteSpace=wrap;html=1;" parent="1" vertex="1">
          <mxGeometry x="600" y="230" width="120" height="60" as="geometry" />
        </mxCell>
        <mxCell id="lPdVNibD4KameyfcasV8-40" value="" style="group" parent="1" vertex="1" connectable="0">
          <mxGeometry x="220" y="50" width="120" height="230" as="geometry" />
        </mxCell>
        <mxCell id="lPdVNibD4KameyfcasV8-14" value="API Gateway" style="rounded=1;whiteSpace=wrap;html=1;" parent="lPdVNibD4KameyfcasV8-40" vertex="1">
          <mxGeometry width="120" height="230" as="geometry" />
        </mxCell>
        <mxCell id="lPdVNibD4KameyfcasV8-19" value="Rate Limiter" style="rounded=1;whiteSpace=wrap;html=1;" parent="lPdVNibD4KameyfcasV8-40" vertex="1">
          <mxGeometry x="20" y="150" width="80" height="40" as="geometry" />
        </mxCell>
        <mxCell id="lPdVNibD4KameyfcasV8-27" value="Au&lt;span style=&quot;background-color: transparent; color: light-dark(rgb(0, 0, 0), rgb(255, 255, 255));&quot;&gt;th Guard&lt;/span&gt;" style="rounded=1;whiteSpace=wrap;html=1;" parent="lPdVNibD4KameyfcasV8-40" vertex="1">
          <mxGeometry x="20" y="40" width="80" height="40" as="geometry" />
        </mxCell>
        <mxCell id="4LYtJYmoKhCsaAz2NnDb-2" style="edgeStyle=orthogonalEdgeStyle;rounded=0;orthogonalLoop=1;jettySize=auto;html=1;exitX=0.5;exitY=1;exitDx=0;exitDy=0;entryX=0.427;entryY=0.06;entryDx=0;entryDy=0;entryPerimeter=0;" edge="1" parent="1" source="lPdVNibD4KameyfcasV8-20" target="lPdVNibD4KameyfcasV8-15">
          <mxGeometry relative="1" as="geometry" />
        </mxCell>
        <mxCell id="lPdVNibD4KameyfcasV8-2" value="User DB" style="shape=cylinder3;whiteSpace=wrap;html=1;boundedLbl=1;backgroundOutline=1;size=15;" parent="1" vertex="1">
          <mxGeometry x="790" y="-40" width="70" height="80" as="geometry" />
        </mxCell>
        <mxCell id="lPdVNibD4KameyfcasV8-24" value="Postgres" style="text;html=1;align=center;verticalAlign=middle;whiteSpace=wrap;rounded=0;" parent="1" vertex="1">
          <mxGeometry x="730" y="-80" width="60" height="30" as="geometry" />
        </mxCell>
        <mxCell id="4LYtJYmoKhCsaAz2NnDb-8" style="edgeStyle=orthogonalEdgeStyle;rounded=0;orthogonalLoop=1;jettySize=auto;html=1;exitX=1;exitY=0.5;exitDx=0;exitDy=0;entryX=0;entryY=0.5;entryDx=0;entryDy=0;entryPerimeter=0;" edge="1" parent="1" source="lPdVNibD4KameyfcasV8-20" target="lPdVNibD4KameyfcasV8-2">
          <mxGeometry relative="1" as="geometry" />
        </mxCell>
      </root>
    </mxGraphModel>
  </diagram>
</mxfile>
